<mxfile host="65bd71144e">
    <diagram id="cZ5uZZ5VPHYlG50jxOPs" name="Event">
        <mxGraphModel dx="1160" dy="778" grid="1" gridSize="10" guides="1" tooltips="1" connect="1" arrows="1" fold="1" page="1" pageScale="1" pageWidth="827" pageHeight="1169" background="#FFFFFF" math="0" shadow="0">
            <root>
                <mxCell id="0"/>
                <mxCell id="1" parent="0"/>
                <mxCell id="dvft0InMSJ8kWpt140As-47" value="" style="rounded=0;whiteSpace=wrap;html=1;fillColor=default;" parent="1" vertex="1">
                    <mxGeometry x="40" y="60" width="440" height="540" as="geometry"/>
                </mxCell>
                <mxCell id="5E2iKsb7aF4_w7MjwlBB-3" value="Local&lt;br&gt;Server" style="shape=umlLifeline;perimeter=lifelinePerimeter;whiteSpace=wrap;html=1;container=1;collapsible=0;recursiveResize=0;outlineConnect=0;fontColor=#333333;fillColor=#f5f5f5;strokeColor=#666666;" parent="1" vertex="1">
                    <mxGeometry x="110" y="80" width="100" height="500" as="geometry"/>
                </mxCell>
                <mxCell id="33" value="" style="html=1;points=[];perimeter=orthogonalPerimeter;fillColor=#f5f5f5;fontColor=#333333;strokeColor=#666666;" parent="5E2iKsb7aF4_w7MjwlBB-3" vertex="1">
                    <mxGeometry x="45" y="250" width="10" height="60" as="geometry"/>
                </mxCell>
                <mxCell id="43" value="" style="html=1;points=[];perimeter=orthogonalPerimeter;fillColor=#f5f5f5;fontColor=#333333;strokeColor=#666666;" parent="5E2iKsb7aF4_w7MjwlBB-3" vertex="1">
                    <mxGeometry x="45" y="170" width="10" height="30" as="geometry"/>
                </mxCell>
                <mxCell id="Gj9ZppzWt80Lem3cZjXc-55" value="" style="html=1;points=[];perimeter=orthogonalPerimeter;fillColor=#f5f5f5;fontColor=#333333;strokeColor=#666666;" parent="5E2iKsb7aF4_w7MjwlBB-3" vertex="1">
                    <mxGeometry x="45" y="340" width="10" height="60" as="geometry"/>
                </mxCell>
                <mxCell id="I44tz_hCNJXn0tHp3RFf-47" value="" style="html=1;points=[];perimeter=orthogonalPerimeter;fillColor=#f5f5f5;fontColor=#333333;strokeColor=#666666;" parent="5E2iKsb7aF4_w7MjwlBB-3" vertex="1">
                    <mxGeometry x="45" y="420" width="10" height="60" as="geometry"/>
                </mxCell>
                <mxCell id="5E2iKsb7aF4_w7MjwlBB-4" value="Remote&lt;br&gt;Server" style="shape=umlLifeline;perimeter=lifelinePerimeter;whiteSpace=wrap;html=1;container=1;collapsible=0;recursiveResize=0;outlineConnect=0;fontColor=#333333;fillColor=#f5f5f5;strokeColor=#666666;" parent="1" vertex="1">
                    <mxGeometry x="310" y="80" width="100" height="500" as="geometry"/>
                </mxCell>
                <mxCell id="2" value="" style="html=1;points=[];perimeter=orthogonalPerimeter;fillColor=#f5f5f5;strokeColor=#666666;fontColor=#333333;" parent="5E2iKsb7aF4_w7MjwlBB-4" vertex="1">
                    <mxGeometry x="45" y="80" width="10" height="40" as="geometry"/>
                </mxCell>
                <mxCell id="3" value="Subscribe" style="html=1;verticalAlign=bottom;endArrow=block;entryX=0;entryY=0;fillColor=#f5f5f5;strokeColor=#666666;" parent="1" source="5E2iKsb7aF4_w7MjwlBB-3" target="2" edge="1">
                    <mxGeometry relative="1" as="geometry">
                        <mxPoint x="139.66666666666652" y="160" as="sourcePoint"/>
                    </mxGeometry>
                </mxCell>
                <mxCell id="4" value="Return resource (HTTP 200)" style="html=1;verticalAlign=bottom;endArrow=open;dashed=1;endSize=8;exitX=0;exitY=0.95;fillColor=#f5f5f5;strokeColor=#666666;" parent="1" source="2" target="5E2iKsb7aF4_w7MjwlBB-3" edge="1">
                    <mxGeometry relative="1" as="geometry">
                        <mxPoint x="139.66666666666652" y="217" as="targetPoint"/>
                    </mxGeometry>
                </mxCell>
                <mxCell id="34" value="Create event (HTTP POST)" style="html=1;verticalAlign=bottom;endArrow=block;labelBackgroundColor=none;fillColor=#f5f5f5;strokeColor=#666666;" parent="1" source="5E2iKsb7aF4_w7MjwlBB-4" target="33" edge="1">
                    <mxGeometry width="80" relative="1" as="geometry">
                        <mxPoint x="369.5" y="330" as="sourcePoint"/>
                        <mxPoint x="-36" y="220" as="targetPoint"/>
                        <Array as="points">
                            <mxPoint x="260" y="330"/>
                        </Array>
                    </mxGeometry>
                </mxCell>
                <mxCell id="35" value="Added to queue (HTTP 202)" style="html=1;verticalAlign=bottom;endArrow=open;labelBackgroundColor=none;fillColor=#f5f5f5;strokeColor=#666666;endFill=0;dashed=1;" parent="1" source="33" target="5E2iKsb7aF4_w7MjwlBB-4" edge="1">
                    <mxGeometry width="80" relative="1" as="geometry">
                        <mxPoint x="145" y="359.58" as="sourcePoint"/>
                        <mxPoint x="369.5" y="360" as="targetPoint"/>
                        <Array as="points">
                            <mxPoint x="260" y="360"/>
                        </Array>
                    </mxGeometry>
                </mxCell>
                <mxCell id="44" value="Create event (HTTP POST)" style="html=1;verticalAlign=bottom;endArrow=block;entryX=1;entryY=0;labelBackgroundColor=none;fillColor=#f5f5f5;strokeColor=#666666;" parent="1" source="5E2iKsb7aF4_w7MjwlBB-4" target="43" edge="1">
                    <mxGeometry relative="1" as="geometry">
                        <mxPoint x="369.5" y="250" as="sourcePoint"/>
                    </mxGeometry>
                </mxCell>
                <mxCell id="45" value="Queue is full (HTTP 503)" style="html=1;verticalAlign=bottom;endArrow=open;dashed=1;endSize=8;exitX=1;exitY=0.95;labelBackgroundColor=none;fillColor=#f5f5f5;strokeColor=#666666;" parent="1" source="43" target="5E2iKsb7aF4_w7MjwlBB-4" edge="1">
                    <mxGeometry relative="1" as="geometry">
                        <mxPoint x="369.5" y="278.5" as="targetPoint"/>
                    </mxGeometry>
                </mxCell>
                <mxCell id="47" value="Resource&lt;br&gt;created." style="text;html=1;strokeColor=#0e8088;fillColor=#b0e3e6;align=center;verticalAlign=middle;whiteSpace=wrap;rounded=0;" parent="1" vertex="1">
                    <mxGeometry x="380" y="230" width="80" height="40" as="geometry"/>
                </mxCell>
                <mxCell id="Gj9ZppzWt80Lem3cZjXc-47" value="Retry deliver" style="text;html=1;align=center;verticalAlign=middle;whiteSpace=wrap;rounded=0;fillColor=#FAF5AF;strokeColor=#B4A805;" parent="1" vertex="1">
                    <mxGeometry x="380" y="320" width="80" height="20" as="geometry"/>
                </mxCell>
                <mxCell id="Gj9ZppzWt80Lem3cZjXc-48" value="queue space: 0" style="text;html=1;fillColor=none;align=left;verticalAlign=middle;whiteSpace=wrap;rounded=0;" parent="1" vertex="1">
                    <mxGeometry x="60" y="250" width="100" height="20" as="geometry"/>
                </mxCell>
                <mxCell id="Gj9ZppzWt80Lem3cZjXc-50" value="queue space: 1" style="text;html=1;fillColor=none;align=left;verticalAlign=middle;whiteSpace=wrap;rounded=0;" parent="1" vertex="1">
                    <mxGeometry x="60" y="330" width="100" height="20" as="geometry"/>
                </mxCell>
                <mxCell id="Gj9ZppzWt80Lem3cZjXc-56" value="Update event (HTTP PUT)" style="html=1;verticalAlign=bottom;endArrow=block;labelBackgroundColor=none;fillColor=#f5f5f5;strokeColor=#666666;" parent="1" source="5E2iKsb7aF4_w7MjwlBB-4" target="Gj9ZppzWt80Lem3cZjXc-55" edge="1">
                    <mxGeometry width="80" relative="1" as="geometry">
                        <mxPoint x="340" y="420" as="sourcePoint"/>
                        <mxPoint x="29" y="310" as="targetPoint"/>
                        <Array as="points"/>
                    </mxGeometry>
                </mxCell>
                <mxCell id="Gj9ZppzWt80Lem3cZjXc-57" value="Added to queue (HTTP 202)" style="html=1;verticalAlign=bottom;endArrow=open;labelBackgroundColor=none;fillColor=#f5f5f5;strokeColor=#666666;endFill=0;dashed=1;" parent="1" source="Gj9ZppzWt80Lem3cZjXc-55" target="5E2iKsb7aF4_w7MjwlBB-4" edge="1">
                    <mxGeometry width="80" relative="1" as="geometry">
                        <mxPoint x="210" y="449.58" as="sourcePoint"/>
                        <mxPoint x="330" y="450" as="targetPoint"/>
                        <Array as="points">
                            <mxPoint x="325" y="450"/>
                        </Array>
                    </mxGeometry>
                </mxCell>
                <mxCell id="Gj9ZppzWt80Lem3cZjXc-59" value="Resource&lt;br&gt;updated." style="text;html=1;strokeColor=#b46504;fillColor=#fad7ac;align=center;verticalAlign=middle;whiteSpace=wrap;rounded=0;" parent="1" vertex="1">
                    <mxGeometry x="380" y="400" width="80" height="40" as="geometry"/>
                </mxCell>
                <mxCell id="I44tz_hCNJXn0tHp3RFf-48" value="Delete event (HTTP DELETE)" style="html=1;verticalAlign=bottom;endArrow=block;labelBackgroundColor=none;fillColor=#f5f5f5;strokeColor=#666666;" parent="1" source="5E2iKsb7aF4_w7MjwlBB-4" target="I44tz_hCNJXn0tHp3RFf-47" edge="1">
                    <mxGeometry width="80" relative="1" as="geometry">
                        <mxPoint x="359.5" y="500" as="sourcePoint"/>
                        <mxPoint x="114" y="390" as="targetPoint"/>
                        <Array as="points"/>
                    </mxGeometry>
                </mxCell>
                <mxCell id="I44tz_hCNJXn0tHp3RFf-49" value="Added to queue (HTTP 202)" style="html=1;verticalAlign=bottom;endArrow=open;labelBackgroundColor=none;fillColor=#f5f5f5;strokeColor=#666666;endFill=0;dashed=1;" parent="1" source="I44tz_hCNJXn0tHp3RFf-47" target="5E2iKsb7aF4_w7MjwlBB-4" edge="1">
                    <mxGeometry width="80" relative="1" as="geometry">
                        <mxPoint x="295" y="529.5799999999999" as="sourcePoint"/>
                        <mxPoint x="359.5" y="530" as="targetPoint"/>
                        <Array as="points"/>
                    </mxGeometry>
                </mxCell>
                <mxCell id="I44tz_hCNJXn0tHp3RFf-50" value="Resource&lt;br&gt;deleted." style="text;html=1;strokeColor=#ae4132;fillColor=#fad9d5;align=center;verticalAlign=middle;whiteSpace=wrap;rounded=0;" parent="1" vertex="1">
                    <mxGeometry x="380" y="480" width="80" height="40" as="geometry"/>
                </mxCell>
            </root>
        </mxGraphModel>
    </diagram>
</mxfile>
